{
    "asset" : {
        "generator" : "Khronos glTF Blender I/O v3.2.43",
        "version" : "2.0"
    },
    "scene" : 0,
    "scenes" : [
        {
            "name" : "Scene",
            "nodes" : [
                0,
                1,
                2,
                3
            ]
        }
    ],
    "nodes" : [
        {
            "mesh" : 0,
            "name" : "\u5186\u9310",
            "rotation" : [
                0.32249715924263,
                0.9425140619277954,
                -0.025993945077061653,
                0.0835888534784317
            ],
            "translation" : [
                8.678053855895996,
                11.20637035369873,
                0.06967690587043762
            ]
        },
        {
            "mesh" : 1,
            "name" : "\u5186\u67f1",
            "rotation" : [
                0.32249715924263,
                0.9425141215324402,
                -0.025993943214416504,
                0.0835888534784317
            ],
            "scale" : [
                0.18357469141483307,
                6.385606288909912,
                0.18357469141483307
            ],
            "translation" : [
                5.245962142944336,
                6.774352550506592,
                0.04212044179439545
            ]
        },
        {
            "mesh" : 2,
            "name" : "\u5186\u67f1.003",
            "rotation" : [
                -0.7767594456672668,
                0.21127694845199585,
                -0.25759196281433105,
                0.5344653725624084
            ],
            "scale" : [
                0.08814706653356552,
                0.7491196990013123,
                0.08814708143472672
            ],
            "translation" : [
                9.173675537109375,
                11.637171745300293,
                -0.65068519115448
            ]
        },
        {
            "mesh" : 3,
            "name" : "\u5186\u67f1.007",
            "rotation" : [
                -0.08358902484178543,
                0.025993429124355316,
                0.9425141215324402,
                0.3224971294403076
            ],
            "scale" : [
                0.23505282402038574,
                0.23505282402038574,
                0.23505282402038574
            ],
            "translation" : [
                8.713199615478516,
                11.251755714416504,
                0.06995910406112671
            ]
        }
    ],
    "materials" : [
        {
            "doubleSided" : true,
            "name" : "\u30de\u30c6\u30ea\u30a2\u30eb",
            "pbrMetallicRoughness" : {
                "roughnessFactor" : 0.33181819319725037
            }
        },
        {
            "doubleSided" : true,
            "name" : "\u30de\u30c6\u30ea\u30a2\u30eb.002",
            "pbrMetallicRoughness" : {
                "baseColorFactor" : [
                    0.5149164199829102,
                    0.8549920320510864,
                    1,
                    1
                ],
                "metallicFactor" : 0,
                "roughnessFactor" : 0.5
            }
        },
        {
            "doubleSided" : true,
            "name" : "\u30de\u30c6\u30ea\u30a2\u30eb.001",
            "pbrMetallicRoughness" : {
                "baseColorFactor" : [
                    0.28278297185897827,
                    0.28278297185897827,
                    0.28278297185897827,
                    1
                ],
                "roughnessFactor" : 0.24090908467769623
            }
        }
    ],
    "meshes" : [
        {
            "name" : "\u5186\u9310",
            "primitives" : [
                {
                    "attributes" : {
                        "POSITION" : 0,
                        "NORMAL" : 1,
                        "TEXCOORD_0" : 2
                    },
                    "indices" : 3,
                    "material" : 0
                },
                {
                    "attributes" : {
                        "POSITION" : 4,
                        "NORMAL" : 5,
                        "TEXCOORD_0" : 6
                    },
                    "indices" : 7,
                    "material" : 1
                }
            ]
        },
        {
            "name" : "\u5186\u67f1",
            "primitives" : [
                {
                    "attributes" : {
                        "POSITION" : 8,
                        "NORMAL" : 9,
                        "TEXCOORD_0" : 10
                    },
                    "indices" : 11,
                    "material" : 2
                }
            ]
        },
        {
            "name" : "\u5186\u67f1.003",
            "primitives" : [
                {
                    "attributes" : {
                        "POSITION" : 12,
                        "NORMAL" : 13,
                        "TEXCOORD_0" : 14
                    },
                    "indices" : 15,
                    "material" : 0
                }
            ]
        },
        {
            "name" : "\u5186\u67f1.007",
            "primitives" : [
                {
                    "attributes" : {
                        "POSITION" : 16,
                        "NORMAL" : 17,
                        "TEXCOORD_0" : 18
                    },
                    "indices" : 19
                }
            ]
        }
    ],
    "accessors" : [
        {
            "bufferView" : 0,
            "componentType" : 5126,
            "count" : 171,
            "max" : [
                7.186280250549316,
                0.9619801044464111,
                8.23932933807373
            ],
            "min" : [
                -7.193284511566162,
                -2.656006336212158,
                -8.235225677490234
            ],
            "type" : "VEC3"
        },
        {
            "bufferView" : 1,
            "componentType" : 5126,
            "count" : 171,
            "type" : "VEC3"
        },
        {
            "bufferView" : 2,
            "componentType" : 5126,
            "count" : 171,
            "type" : "VEC2"
        },
        {
            "bufferView" : 3,
            "componentType" : 5123,
            "count" : 510,
            "type" : "SCALAR"
        },
        {
            "bufferView" : 4,
            "componentType" : 5126,
            "count" : 24,
            "max" : [
                7.315089225769043,
                -2.656005859375,
                8.389631271362305
            ],
            "min" : [
                -7.322995185852051,
                -2.8044333457946777,
                -8.384998321533203
            ],
            "type" : "VEC3"
        },
        {
            "bufferView" : 5,
            "componentType" : 5126,
            "count" : 24,
            "type" : "VEC3"
        },
        {
            "bufferView" : 6,
            "componentType" : 5126,
            "count" : 24,
            "type" : "VEC2"
        },
        {
            "bufferView" : 7,
            "componentType" : 5123,
            "count" : 72,
            "type" : "SCALAR"
        },
        {
            "bufferView" : 8,
            "componentType" : 5126,
            "count" : 711,
            "max" : [
                2.3531086444854736,
                1,
                2.3531088829040527
            ],
            "min" : [
                -2.3531084060668945,
                -1.0478920936584473,
                -2.3531084060668945
            ],
            "type" : "VEC3"
        },
        {
            "bufferView" : 9,
            "componentType" : 5126,
            "count" : 711,
            "type" : "VEC3"
        },
        {
            "bufferView" : 10,
            "componentType" : 5126,
            "count" : 711,
            "type" : "VEC2"
        },
        {
            "bufferView" : 11,
            "componentType" : 5123,
            "count" : 2382,
            "type" : "SCALAR"
        },
        {
            "bufferView" : 12,
            "componentType" : 5126,
            "count" : 1764,
            "max" : [
                62.475616455078125,
                7.855704307556152,
                1
            ],
            "min" : [
                -62.47563171386719,
                -8.283181190490723,
                -44.20418167114258
            ],
            "type" : "VEC3"
        },
        {
            "bufferView" : 13,
            "componentType" : 5126,
            "count" : 1764,
            "type" : "VEC3"
        },
        {
            "bufferView" : 14,
            "componentType" : 5126,
            "count" : 1764,
            "type" : "VEC2"
        },
        {
            "bufferView" : 15,
            "componentType" : 5123,
            "count" : 6768,
            "type" : "SCALAR"
        },
        {
            "bufferView" : 16,
            "componentType" : 5126,
            "count" : 320,
            "max" : [
                1,
                1.371883511543274,
                1
            ],
            "min" : [
                -1,
                -1,
                -1
            ],
            "type" : "VEC3"
        },
        {
            "bufferView" : 17,
            "componentType" : 5126,
            "count" : 320,
            "type" : "VEC3"
        },
        {
            "bufferView" : 18,
            "componentType" : 5126,
            "count" : 320,
            "type" : "VEC2"
        },
        {
            "bufferView" : 19,
            "componentType" : 5123,
            "count" : 564,
            "type" : "SCALAR"
        }
    ],
    "bufferViews" : [
        {
            "buffer" : 0,
            "byteLength" : 2052,
            "byteOffset" : 0
        },
        {
            "buffer" : 0,
            "byteLength" : 2052,
            "byteOffset" : 2052
        },
        {
            "buffer" : 0,
            "byteLength" : 1368,
            "byteOffset" : 4104
        },
        {
            "buffer" : 0,
            "byteLength" : 1020,
            "byteOffset" : 5472
        },
        {
            "buffer" : 0,
            "byteLength" : 288,
            "byteOffset" : 6492
        },
        {
            "buffer" : 0,
            "byteLength" : 288,
            "byteOffset" : 6780
        },
        {
            "buffer" : 0,
            "byteLength" : 192,
            "byteOffset" : 7068
        },
        {
            "buffer" : 0,
            "byteLength" : 144,
            "byteOffset" : 7260
        },
        {
            "buffer" : 0,
            "byteLength" : 8532,
            "byteOffset" : 7404
        },
        {
            "buffer" : 0,
            "byteLength" : 8532,
            "byteOffset" : 15936
        },
        {
            "buffer" : 0,
            "byteLength" : 5688,
            "byteOffset" : 24468
        },
        {
            "buffer" : 0,
            "byteLength" : 4764,
            "byteOffset" : 30156
        },
        {
            "buffer" : 0,
            "byteLength" : 21168,
            "byteOffset" : 34920
        },
        {
            "buffer" : 0,
            "byteLength" : 21168,
            "byteOffset" : 56088
        },
        {
            "buffer" : 0,
            "byteLength" : 14112,
            "byteOffset" : 77256
        },
        {
            "buffer" : 0,
            "byteLength" : 13536,
            "byteOffset" : 91368
        },
        {
            "buffer" : 0,
            "byteLength" : 3840,
            "byteOffset" : 104904
        },
        {
            "buffer" : 0,
            "byteLength" : 3840,
            "byteOffset" : 108744
        },
        {
            "buffer" : 0,
            "byteLength" : 2560,
            "byteOffset" : 112584
        },
        {
            "buffer" : 0,
            "byteLength" : 1128,
            "byteOffset" : 115144
        }
    ],
    "buffers" : [
        {
            "byteLength" : 116272,
            "uri" : "data:application/octet-stream;base64,"
        }
    ]
}
